<svg width="1024" height="1024" viewBox="0 0 1024 1024" fill="none" xmlns="http://www.w3.org/2000/svg">
<g clip-path="url(#clip0_1_3)">
<path d="M858.619 772.801H165.364C152.762 772.801 140.676 777.807 131.765 786.718C122.855 795.629 117.849 807.714 117.849 820.316C117.849 832.918 122.855 845.004 131.765 853.914C140.676 862.825 152.762 867.831 165.364 867.831H858.619C865.367 867.833 872.037 866.394 878.184 863.61C884.331 860.827 889.813 856.764 894.264 851.692C896.279 849.399 898.07 846.919 899.614 844.286C900.81 842.268 901.846 840.159 902.714 837.979C905.609 830.771 906.69 822.963 905.865 815.239C905.039 807.515 902.331 800.112 897.978 793.678C893.626 787.244 887.761 781.977 880.899 778.337C874.037 774.697 866.387 772.796 858.619 772.801Z" fill="#CCCCCC"/>
<path d="M903.37 842.125C887.979 860.361 871.333 877.499 853.552 893.413H170.448C152.667 877.499 136.021 860.361 120.63 842.125H903.37Z" fill="#3F3D56"/>
<path d="M569.188 664.484H454.174C453.554 664.477 452.938 664.573 452.349 664.767C451.101 665.153 450.009 665.929 449.234 666.982C448.459 668.034 448.042 669.307 448.044 670.614V852.312H575.336V670.614C575.335 669.808 575.175 669.009 574.866 668.265C574.556 667.52 574.103 666.844 573.532 666.275C572.961 665.705 572.284 665.254 571.538 664.947C570.793 664.64 569.994 664.482 569.188 664.484ZM525.659 754.128C525.663 757.075 524.692 759.941 522.896 762.278C521.182 764.545 518.799 766.218 516.084 767.06C513.369 767.902 510.458 767.871 507.762 766.971C505.066 766.071 502.72 764.347 501.055 762.043C499.39 759.739 498.49 756.971 498.483 754.128V733.046C498.516 729.464 499.962 726.04 502.507 723.519C505.051 720.997 508.489 719.583 512.071 719.583C515.653 719.583 519.09 720.997 521.635 723.519C524.18 726.04 525.626 729.464 525.659 733.046V754.128Z" fill="#2F2E41"/>
<path d="M447.654 846.501V864.022C447.654 864.931 448.014 865.802 448.655 866.446C449.295 867.09 450.165 867.455 451.074 867.459H572.306C573.214 867.452 574.082 867.086 574.722 866.443C575.362 865.8 575.722 864.93 575.725 864.022V846.501H447.654Z" fill="#3F3D56"/>
<path d="M759.638 380.935H268.012C263.788 380.94 259.738 382.62 256.749 385.605C253.761 388.59 252.077 392.638 252.067 396.862V728.617C252.07 732.844 253.751 736.898 256.741 739.888C259.73 742.877 263.784 744.558 268.012 744.561H759.638C763.866 744.558 767.919 742.877 770.909 739.888C773.898 736.898 775.579 732.844 775.582 728.617V396.862C775.572 392.638 773.889 388.59 770.9 385.605C767.912 382.62 763.862 380.94 759.638 380.935Z" fill="#3F3D56"/>
<path d="M755.528 392.451H272.104C269.842 392.455 267.675 393.357 266.078 394.958C264.48 396.559 263.583 398.728 263.583 400.99V724.524C263.586 726.783 264.485 728.948 266.083 730.546C267.68 732.143 269.845 733.042 272.104 733.046H755.528C757.786 733.042 759.952 732.143 761.549 730.546C763.146 728.948 764.045 726.783 764.049 724.524V400.99C764.049 398.728 763.152 396.559 761.554 394.958C759.956 393.357 757.789 392.455 755.528 392.451Z" fill="#F9A826"/>
<path d="M666.557 867.176L662.092 845.969C661.907 845.105 661.509 844.3 660.933 843.628C660.358 842.957 659.623 842.44 658.797 842.125C658.199 841.89 657.562 841.77 656.919 841.771H378.224C377.582 841.77 376.945 841.89 376.346 842.125C375.52 842.44 374.786 842.957 374.21 843.628C373.635 844.3 373.236 845.105 373.051 845.969L368.587 867.176C368.425 867.945 368.438 868.742 368.623 869.506C368.808 870.271 369.161 870.984 369.656 871.595C370.152 872.206 370.777 872.699 371.487 873.037C372.197 873.376 372.973 873.553 373.76 873.554H661.366C662.155 873.558 662.935 873.383 663.647 873.042C664.358 872.701 664.984 872.204 665.476 871.587C665.972 870.978 666.327 870.266 666.514 869.503C666.701 868.74 666.715 867.945 666.557 867.176Z" fill="#2F2E41"/>
<path d="M388.26 845.59H381.132C380.654 845.59 380.267 845.977 380.267 846.455V850.04C380.267 850.517 380.654 850.905 381.132 850.905H388.26C388.738 850.905 389.125 850.517 389.125 850.04V846.455C389.125 845.977 388.738 845.59 388.26 845.59Z" fill="#3F3D56"/>
<path d="M405.977 845.59H398.848C398.371 845.59 397.984 845.977 397.984 846.455V850.04C397.984 850.517 398.371 850.905 398.848 850.905H405.977C406.454 850.905 406.842 850.517 406.842 850.04V846.455C406.842 845.977 406.454 845.59 405.977 845.59Z" fill="#3F3D56"/>
<path d="M423.693 845.59H416.565C416.087 845.59 415.7 845.977 415.7 846.455V850.04C415.7 850.517 416.087 850.905 416.565 850.905H423.693C424.171 850.905 424.558 850.517 424.558 850.04V846.455C424.558 845.977 424.171 845.59 423.693 845.59Z" fill="#3F3D56"/>
<path d="M441.409 845.59H434.281C433.803 845.59 433.416 845.977 433.416 846.455V850.04C433.416 850.517 433.803 850.905 434.281 850.905H441.409C441.887 850.905 442.274 850.517 442.274 850.04V846.455C442.274 845.977 441.887 845.59 441.409 845.59Z" fill="#3F3D56"/>
<path d="M459.125 845.59H451.997C451.519 845.59 451.132 845.977 451.132 846.455V850.04C451.132 850.517 451.519 850.905 451.997 850.905H459.125C459.603 850.905 459.99 850.517 459.99 850.04V846.455C459.99 845.977 459.603 845.59 459.125 845.59Z" fill="#3F3D56"/>
<path d="M476.842 845.59H469.713C469.236 845.59 468.849 845.977 468.849 846.455V850.04C468.849 850.517 469.236 850.905 469.713 850.905H476.842C477.319 850.905 477.707 850.517 477.707 850.04V846.455C477.707 845.977 477.319 845.59 476.842 845.59Z" fill="#3F3D56"/>
<path d="M494.558 845.59H487.43C486.952 845.59 486.565 845.977 486.565 846.455V850.04C486.565 850.517 486.952 850.905 487.43 850.905H494.558C495.036 850.905 495.423 850.517 495.423 850.04V846.455C495.423 845.977 495.036 845.59 494.558 845.59Z" fill="#3F3D56"/>
<path d="M512.274 845.59H505.146C504.668 845.59 504.281 845.977 504.281 846.455V850.04C504.281 850.517 504.668 850.905 505.146 850.905H512.274C512.752 850.905 513.139 850.517 513.139 850.04V846.455C513.139 845.977 512.752 845.59 512.274 845.59Z" fill="#3F3D56"/>
<path d="M529.991 845.59H522.862C522.385 845.59 521.997 845.977 521.997 846.455V850.04C521.997 850.517 522.385 850.905 522.862 850.905H529.991C530.468 850.905 530.855 850.517 530.855 850.04V846.455C530.855 845.977 530.468 845.59 529.991 845.59Z" fill="#3F3D56"/>
<path d="M547.707 845.59H540.578C540.101 845.59 539.714 845.977 539.714 846.455V850.04C539.714 850.517 540.101 850.905 540.578 850.905H547.707C548.184 850.905 548.572 850.517 548.572 850.04V846.455C548.572 845.977 548.184 845.59 547.707 845.59Z" fill="#3F3D56"/>
<path d="M565.423 845.59H558.295C557.817 845.59 557.43 845.977 557.43 846.455V850.04C557.43 850.517 557.817 850.905 558.295 850.905H565.423C565.901 850.905 566.288 850.517 566.288 850.04V846.455C566.288 845.977 565.901 845.59 565.423 845.59Z" fill="#3F3D56"/>
<path d="M583.139 845.59H576.011C575.533 845.59 575.146 845.977 575.146 846.455V850.04C575.146 850.517 575.533 850.905 576.011 850.905H583.139C583.617 850.905 584.004 850.517 584.004 850.04V846.455C584.004 845.977 583.617 845.59 583.139 845.59Z" fill="#3F3D56"/>
<path d="M600.856 845.59H593.727C593.25 845.59 592.862 845.977 592.862 846.455V850.04C592.862 850.517 593.25 850.905 593.727 850.905H600.856C601.333 850.905 601.72 850.517 601.72 850.04V846.455C601.72 845.977 601.333 845.59 600.856 845.59Z" fill="#3F3D56"/>
<path d="M618.572 845.59H611.444C610.966 845.59 610.579 845.977 610.579 846.455V850.04C610.579 850.517 610.966 850.905 611.444 850.905H618.572C619.05 850.905 619.437 850.517 619.437 850.04V846.455C619.437 845.977 619.05 845.59 618.572 845.59Z" fill="#3F3D56"/>
<path d="M636.288 845.59H629.16C628.682 845.59 628.295 845.977 628.295 846.455V850.04C628.295 850.517 628.682 850.905 629.16 850.905H636.288C636.766 850.905 637.153 850.517 637.153 850.04V846.455C637.153 845.977 636.766 845.59 636.288 845.59Z" fill="#3F3D56"/>
<path d="M654.004 845.59H646.876C646.399 845.59 646.011 845.977 646.011 846.455V850.04C646.011 850.517 646.399 850.905 646.876 850.905H654.004C654.482 850.905 654.869 850.517 654.869 850.04V846.455C654.869 845.977 654.482 845.59 654.004 845.59Z" fill="#3F3D56"/>
<path d="M388.051 854.448H380.923C380.445 854.448 380.058 854.835 380.058 855.313V858.898C380.058 859.376 380.445 859.763 380.923 859.763H388.051C388.529 859.763 388.916 859.376 388.916 858.898V855.313C388.916 854.835 388.529 854.448 388.051 854.448Z" fill="#3F3D56"/>
<path d="M405.767 854.448H398.639C398.161 854.448 397.774 854.835 397.774 855.313V858.898C397.774 859.376 398.161 859.763 398.639 859.763H405.767C406.245 859.763 406.632 859.376 406.632 858.898V855.313C406.632 854.835 406.245 854.448 405.767 854.448Z" fill="#3F3D56"/>
<path d="M423.484 854.448H416.355C415.878 854.448 415.49 854.835 415.49 855.313V858.898C415.49 859.376 415.878 859.763 416.355 859.763H423.484C423.961 859.763 424.348 859.376 424.348 858.898V855.313C424.348 854.835 423.961 854.448 423.484 854.448Z" fill="#3F3D56"/>
<path d="M441.2 854.448H434.071C433.594 854.448 433.207 854.835 433.207 855.313V858.898C433.207 859.376 433.594 859.763 434.071 859.763H441.2C441.678 859.763 442.065 859.376 442.065 858.898V855.313C442.065 854.835 441.678 854.448 441.2 854.448Z" fill="#3F3D56"/>
<path d="M458.916 854.448H451.788C451.31 854.448 450.923 854.835 450.923 855.313V858.898C450.923 859.376 451.31 859.763 451.788 859.763H458.916C459.394 859.763 459.781 859.376 459.781 858.898V855.313C459.781 854.835 459.394 854.448 458.916 854.448Z" fill="#3F3D56"/>
<path d="M476.632 854.448H469.504C469.026 854.448 468.639 854.835 468.639 855.313V858.898C468.639 859.376 469.026 859.763 469.504 859.763H476.632C477.11 859.763 477.497 859.376 477.497 858.898V855.313C477.497 854.835 477.11 854.448 476.632 854.448Z" fill="#3F3D56"/>
<path d="M494.349 854.448H487.22C486.743 854.448 486.355 854.835 486.355 855.313V858.898C486.355 859.376 486.743 859.763 487.22 859.763H494.349C494.826 859.763 495.214 859.376 495.214 858.898V855.313C495.214 854.835 494.826 854.448 494.349 854.448Z" fill="#3F3D56"/>
<path d="M512.065 854.448H504.937C504.459 854.448 504.072 854.835 504.072 855.313V858.898C504.072 859.376 504.459 859.763 504.937 859.763H512.065C512.543 859.763 512.93 859.376 512.93 858.898V855.313C512.93 854.835 512.543 854.448 512.065 854.448Z" fill="#3F3D56"/>
<path d="M529.781 854.448H522.653C522.175 854.448 521.788 854.835 521.788 855.313V858.898C521.788 859.376 522.175 859.763 522.653 859.763H529.781C530.259 859.763 530.646 859.376 530.646 858.898V855.313C530.646 854.835 530.259 854.448 529.781 854.448Z" fill="#3F3D56"/>
<path d="M547.497 854.448H540.369C539.891 854.448 539.504 854.835 539.504 855.313V858.898C539.504 859.376 539.891 859.763 540.369 859.763H547.497C547.975 859.763 548.362 859.376 548.362 858.898V855.313C548.362 854.835 547.975 854.448 547.497 854.448Z" fill="#3F3D56"/>
<path d="M565.214 854.448H558.085C557.608 854.448 557.22 854.835 557.22 855.313V858.898C557.22 859.376 557.608 859.763 558.085 859.763H565.214C565.691 859.763 566.079 859.376 566.079 858.898V855.313C566.079 854.835 565.691 854.448 565.214 854.448Z" fill="#3F3D56"/>
<path d="M582.93 854.448H575.802C575.324 854.448 574.937 854.835 574.937 855.313V858.898C574.937 859.376 575.324 859.763 575.802 859.763H582.93C583.408 859.763 583.795 859.376 583.795 858.898V855.313C583.795 854.835 583.408 854.448 582.93 854.448Z" fill="#3F3D56"/>
<path d="M600.646 854.448H593.518C593.04 854.448 592.653 854.835 592.653 855.313V858.898C592.653 859.376 593.04 859.763 593.518 859.763H600.646C601.124 859.763 601.511 859.376 601.511 858.898V855.313C601.511 854.835 601.124 854.448 600.646 854.448Z" fill="#3F3D56"/>
<path d="M618.363 854.448H611.234C610.756 854.448 610.369 854.835 610.369 855.313V858.898C610.369 859.376 610.756 859.763 611.234 859.763H618.363C618.84 859.763 619.227 859.376 619.227 858.898V855.313C619.227 854.835 618.84 854.448 618.363 854.448Z" fill="#3F3D56"/>
<path d="M636.079 854.448H628.95C628.473 854.448 628.086 854.835 628.086 855.313V858.898C628.086 859.376 628.473 859.763 628.95 859.763H636.079C636.556 859.763 636.944 859.376 636.944 858.898V855.313C636.944 854.835 636.556 854.448 636.079 854.448Z" fill="#3F3D56"/>
<path d="M653.795 854.448H646.667C646.189 854.448 645.802 854.835 645.802 855.313V858.898C645.802 859.376 646.189 859.763 646.667 859.763H653.795C654.273 859.763 654.66 859.376 654.66 858.898V855.313C654.66 854.835 654.273 854.448 653.795 854.448Z" fill="#3F3D56"/>
<path d="M535.096 865.078H465.961C465.483 865.078 465.096 865.465 465.096 865.943V869.528C465.096 870.005 465.483 870.393 465.961 870.393H535.096C535.574 870.393 535.961 870.005 535.961 869.528V865.943C535.961 865.465 535.574 865.078 535.096 865.078Z" fill="#3F3D56"/>
<path d="M731.235 437.019H278.898C278.428 437.009 277.98 436.815 277.651 436.478C277.322 436.142 277.138 435.69 277.138 435.22C277.138 434.75 277.322 434.298 277.651 433.962C277.98 433.626 278.428 433.432 278.898 433.421H731.235C731.706 433.432 732.153 433.626 732.482 433.962C732.811 434.298 732.995 434.75 732.995 435.22C732.995 435.69 732.811 436.142 732.482 436.478C732.153 436.815 731.706 437.009 731.235 437.019Z" fill="#3F3D56"/>
<path d="M309.689 424.237C315.511 424.237 320.231 419.412 320.231 413.46C320.231 407.508 315.511 402.683 309.689 402.683C303.867 402.683 299.147 407.508 299.147 413.46C299.147 419.412 303.867 424.237 309.689 424.237Z" fill="#3F3D56"/>
<path d="M346.107 424.237C351.929 424.237 356.649 419.412 356.649 413.46C356.649 407.508 351.929 402.683 346.107 402.683C340.284 402.683 335.565 407.508 335.565 413.46C335.565 419.412 340.284 424.237 346.107 424.237Z" fill="#3F3D56"/>
<path d="M382.524 424.237C388.346 424.237 393.066 419.412 393.066 413.46C393.066 407.508 388.346 402.683 382.524 402.683C376.702 402.683 371.982 407.508 371.982 413.46C371.982 419.412 376.702 424.237 382.524 424.237Z" fill="#3F3D56"/>
<path d="M709.306 405.348H683.44C682.929 405.36 682.443 405.572 682.085 405.937C681.728 406.303 681.528 406.794 681.528 407.306C681.528 407.817 681.728 408.308 682.085 408.674C682.443 409.04 682.929 409.251 683.44 409.263H709.306C709.82 409.256 710.311 409.047 710.673 408.68C711.034 408.314 711.236 407.82 711.236 407.306C711.236 406.791 711.034 406.297 710.673 405.931C710.311 405.565 709.82 405.355 709.306 405.348Z" fill="#3F3D56"/>
<path d="M709.306 412.7H683.44C682.929 412.712 682.442 412.923 682.084 413.289C681.726 413.655 681.525 414.146 681.525 414.658C681.525 415.17 681.726 415.661 682.084 416.027C682.442 416.393 682.929 416.604 683.44 416.616H709.306C709.821 416.609 710.313 416.4 710.675 416.034C711.037 415.668 711.24 415.173 711.24 414.658C711.24 414.143 711.037 413.648 710.675 413.282C710.313 412.916 709.821 412.707 709.306 412.7Z" fill="#3F3D56"/>
<path d="M709.306 420.053H683.44C682.929 420.065 682.443 420.276 682.085 420.642C681.728 421.008 681.528 421.499 681.528 422.01C681.528 422.522 681.728 423.013 682.085 423.379C682.443 423.745 682.929 423.956 683.44 423.968H709.306C709.82 423.961 710.311 423.751 710.673 423.385C711.034 423.019 711.236 422.525 711.236 422.01C711.236 421.496 711.034 421.002 710.673 420.636C710.311 420.269 709.82 420.06 709.306 420.053Z" fill="#3F3D56"/>
<path d="M317.901 478.823H308.607C305.789 478.823 303.505 481.108 303.505 483.925C303.505 486.743 305.789 489.028 308.607 489.028H317.901C320.719 489.028 323.003 486.743 323.003 483.925C323.003 481.108 320.719 478.823 317.901 478.823Z" fill="#E6E6E6"/>
<path d="M424.199 478.823H414.904C412.087 478.823 409.802 481.108 409.802 483.925C409.802 486.743 412.087 489.028 414.904 489.028H424.199C427.017 489.028 429.301 486.743 429.301 483.925C429.301 481.108 427.017 478.823 424.199 478.823Z" fill="#E6E6E6"/>
<path d="M454.316 478.823H445.022C442.204 478.823 439.92 481.108 439.92 483.925C439.92 486.743 442.204 489.028 445.022 489.028H454.316C457.134 489.028 459.418 486.743 459.418 483.925C459.418 481.108 457.134 478.823 454.316 478.823Z" fill="#E6E6E6"/>
<path d="M395.285 477.973H337.52C334.702 477.973 332.418 480.257 332.418 483.075C332.418 485.893 334.702 488.177 337.52 488.177H395.285C398.103 488.177 400.388 485.893 400.388 483.075C400.388 480.257 398.103 477.973 395.285 477.973Z" fill="#E6E6E6"/>
<path d="M537.015 477.973H479.25C476.432 477.973 474.148 480.257 474.148 483.075C474.148 485.893 476.432 488.177 479.25 488.177H537.015C539.833 488.177 542.117 485.893 542.117 483.075C542.117 480.257 539.833 477.973 537.015 477.973Z" fill="#E6E6E6"/>
<path d="M346.247 501.854H336.953C334.135 501.854 331.851 504.139 331.851 506.957C331.851 509.774 334.135 512.059 336.953 512.059H346.247C349.065 512.059 351.349 509.774 351.349 506.957C351.349 504.139 349.065 501.854 346.247 501.854Z" fill="#E6E6E6"/>
<path d="M452.545 501.854H443.25C440.433 501.854 438.148 504.139 438.148 506.957C438.148 509.774 440.433 512.059 443.25 512.059H452.545C455.363 512.059 457.647 509.774 457.647 506.957C457.647 504.139 455.363 501.854 452.545 501.854Z" fill="#E6E6E6"/>
<path d="M482.662 501.854H473.368C470.55 501.854 468.266 504.139 468.266 506.957C468.266 509.774 470.55 512.059 473.368 512.059H482.662C485.48 512.059 487.764 509.774 487.764 506.957C487.764 504.139 485.48 501.854 482.662 501.854Z" fill="#E6E6E6"/>
<path d="M423.631 501.004H365.866C363.048 501.004 360.764 503.288 360.764 506.106C360.764 508.924 363.048 511.208 365.866 511.208H423.631C426.449 511.208 428.734 508.924 428.734 506.106C428.734 503.288 426.449 501.004 423.631 501.004Z" fill="#E6E6E6"/>
<path d="M565.361 501.004H507.596C504.778 501.004 502.494 503.288 502.494 506.106C502.494 508.924 504.778 511.208 507.596 511.208H565.361C568.179 511.208 570.464 508.924 570.464 506.106C570.464 503.288 568.179 501.004 565.361 501.004Z" fill="#E6E6E6"/>
<path d="M374.593 524.886H365.299C362.481 524.886 360.197 527.17 360.197 529.988C360.197 532.806 362.481 535.09 365.299 535.09H374.593C377.411 535.09 379.695 532.806 379.695 529.988C379.695 527.17 377.411 524.886 374.593 524.886Z" fill="#E6E6E6"/>
<path d="M480.891 524.886H471.596C468.779 524.886 466.494 527.17 466.494 529.988C466.494 532.806 468.779 535.09 471.596 535.09H480.891C483.709 535.09 485.993 532.806 485.993 529.988C485.993 527.17 483.709 524.886 480.891 524.886Z" fill="#E6E6E6"/>
<path d="M511.008 524.886H501.714C498.896 524.886 496.612 527.17 496.612 529.988C496.612 532.806 498.896 535.09 501.714 535.09H511.008C513.826 535.09 516.111 532.806 516.111 529.988C516.111 527.17 513.826 524.886 511.008 524.886Z" fill="#E6E6E6"/>
<path d="M451.977 524.035H394.212C391.394 524.035 389.11 526.319 389.11 529.137C389.11 531.955 391.394 534.239 394.212 534.239H451.977C454.795 534.239 457.08 531.955 457.08 529.137C457.08 526.319 454.795 524.035 451.977 524.035Z" fill="#E6E6E6"/>
<path d="M593.707 524.035H535.942C533.124 524.035 530.84 526.319 530.84 529.137C530.84 531.955 533.124 534.239 535.942 534.239H593.707C596.525 534.239 598.81 531.955 598.81 529.137C598.81 526.319 596.525 524.035 593.707 524.035Z" fill="#E6E6E6"/>
<path d="M402.939 547.917H393.645C390.827 547.917 388.543 550.201 388.543 553.019C388.543 555.837 390.827 558.121 393.645 558.121H402.939C405.757 558.121 408.041 555.837 408.041 553.019C408.041 550.201 405.757 547.917 402.939 547.917Z" fill="#E6E6E6"/>
<path d="M509.237 547.917H499.942C497.125 547.917 494.84 550.201 494.84 553.019C494.84 555.837 497.125 558.121 499.942 558.121H509.237C512.055 558.121 514.339 555.837 514.339 553.019C514.339 550.201 512.055 547.917 509.237 547.917Z" fill="#E6E6E6"/>
<path d="M539.354 547.917H530.06C527.242 547.917 524.958 550.201 524.958 553.019C524.958 555.837 527.242 558.121 530.06 558.121H539.354C542.172 558.121 544.457 555.837 544.457 553.019C544.457 550.201 542.172 547.917 539.354 547.917Z" fill="#E6E6E6"/>
<path d="M480.323 547.066H422.558C419.74 547.066 417.456 549.35 417.456 552.168C417.456 554.986 419.74 557.27 422.558 557.27H480.323C483.141 557.27 485.426 554.986 485.426 552.168C485.426 549.35 483.141 547.066 480.323 547.066Z" fill="#E6E6E6"/>
<path d="M424.199 639.498H414.904C412.087 639.498 409.802 641.783 409.802 644.601C409.802 647.418 412.087 649.703 414.904 649.703H424.199C427.017 649.703 429.301 647.418 429.301 644.601C429.301 641.783 427.017 639.498 424.199 639.498Z" fill="#E6E6E6"/>
<path d="M454.316 639.498H445.022C442.204 639.498 439.92 641.783 439.92 644.601C439.92 647.418 442.204 649.703 445.022 649.703H454.316C457.134 649.703 459.418 647.418 459.418 644.601C459.418 641.783 457.134 639.498 454.316 639.498Z" fill="#E6E6E6"/>
<path d="M537.015 640.349H479.25C476.432 640.349 474.148 642.633 474.148 645.451C474.148 648.269 476.432 650.553 479.25 650.553H537.015C539.833 650.553 542.117 648.269 542.117 645.451C542.117 642.633 539.833 640.349 537.015 640.349Z" fill="#E6E6E6"/>
<path d="M317.901 639.498H308.607C305.789 639.498 303.505 641.783 303.505 644.601C303.505 647.418 305.789 649.703 308.607 649.703H317.901C320.719 649.703 323.003 647.418 323.003 644.601C323.003 641.783 320.719 639.498 317.901 639.498Z" fill="#E6E6E6"/>
<path d="M395.285 640.349H337.52C334.702 640.349 332.418 642.633 332.418 645.451C332.418 648.269 334.702 650.553 337.52 650.553H395.285C398.103 650.553 400.388 648.269 400.388 645.451C400.388 642.633 398.103 640.349 395.285 640.349Z" fill="#E6E6E6"/>
<path d="M346.247 616.467H336.953C334.135 616.467 331.851 618.751 331.851 621.569C331.851 624.387 334.135 626.672 336.953 626.672H346.247C349.065 626.672 351.349 624.387 351.349 621.569C351.349 618.751 349.065 616.467 346.247 616.467Z" fill="#E6E6E6"/>
<path d="M452.545 616.467H443.25C440.433 616.467 438.148 618.751 438.148 621.569C438.148 624.387 440.433 626.672 443.25 626.672H452.545C455.363 626.672 457.647 624.387 457.647 621.569C457.647 618.751 455.363 616.467 452.545 616.467Z" fill="#E6E6E6"/>
<path d="M482.662 616.467H473.368C470.55 616.467 468.266 618.751 468.266 621.569C468.266 624.387 470.55 626.672 473.368 626.672H482.662C485.48 626.672 487.764 624.387 487.764 621.569C487.764 618.751 485.48 616.467 482.662 616.467Z" fill="#E6E6E6"/>
<path d="M423.631 617.318H365.866C363.048 617.318 360.764 619.602 360.764 622.42C360.764 625.238 363.048 627.522 365.866 627.522H423.631C426.449 627.522 428.734 625.238 428.734 622.42C428.734 619.602 426.449 617.318 423.631 617.318Z" fill="#E6E6E6"/>
<path d="M374.593 593.436H365.299C362.481 593.436 360.197 595.72 360.197 598.538C360.197 601.356 362.481 603.641 365.299 603.641H374.593C377.411 603.641 379.695 601.356 379.695 598.538C379.695 595.72 377.411 593.436 374.593 593.436Z" fill="#E6E6E6"/>
<path d="M480.891 593.436H471.596C468.779 593.436 466.494 595.72 466.494 598.538C466.494 601.356 468.779 603.641 471.596 603.641H480.891C483.709 603.641 485.993 601.356 485.993 598.538C485.993 595.72 483.709 593.436 480.891 593.436Z" fill="#E6E6E6"/>
<path d="M511.008 593.436H501.714C498.896 593.436 496.612 595.72 496.612 598.538C496.612 601.356 498.896 603.641 501.714 603.641H511.008C513.826 603.641 516.111 601.356 516.111 598.538C516.111 595.72 513.826 593.436 511.008 593.436Z" fill="#E6E6E6"/>
<path d="M451.977 594.287H394.212C391.394 594.287 389.11 596.571 389.11 599.389C389.11 602.207 391.394 604.491 394.212 604.491H451.977C454.795 604.491 457.08 602.207 457.08 599.389C457.08 596.571 454.795 594.287 451.977 594.287Z" fill="#E6E6E6"/>
<path d="M402.939 570.405H393.645C390.827 570.405 388.543 572.689 388.543 575.507C388.543 578.325 390.827 580.609 393.645 580.609H402.939C405.757 580.609 408.041 578.325 408.041 575.507C408.041 572.689 405.757 570.405 402.939 570.405Z" fill="#E6E6E6"/>
<path d="M509.237 570.405H499.942C497.125 570.405 494.84 572.689 494.84 575.507C494.84 578.325 497.125 580.609 499.942 580.609H509.237C512.055 580.609 514.339 578.325 514.339 575.507C514.339 572.689 512.055 570.405 509.237 570.405Z" fill="#E6E6E6"/>
<path d="M539.354 570.405H530.06C527.242 570.405 524.958 572.689 524.958 575.507C524.958 578.325 527.242 580.609 530.06 580.609H539.354C542.172 580.609 544.457 578.325 544.457 575.507C544.457 572.689 542.172 570.405 539.354 570.405Z" fill="#E6E6E6"/>
<path d="M480.323 571.255H422.558C419.74 571.255 417.456 573.54 417.456 576.358C417.456 579.176 419.74 581.46 422.558 581.46H480.323C483.141 581.46 485.426 579.176 485.426 576.358C485.426 573.54 483.141 571.255 480.323 571.255Z" fill="#E6E6E6"/>
<path d="M736.66 972.215C735.579 972.765 734.481 973.314 733.4 973.845C705.408 987.841 683.015 995.796 652.384 1004.51C649.797 975.635 647.299 924.878 644.872 893.413C644.234 885.246 643.596 878.39 642.976 873.554C642.82 870.982 642.295 868.446 641.417 866.024L641.523 873.554L641.789 893.413L643.331 1006.99C605.227 1017.07 566.086 1022.72 526.687 1023.81C524.632 1023.86 522.612 1023.89 520.663 1023.93C519.972 1023.95 519.299 1023.96 518.626 1023.96C516.411 1023.98 514.214 1024 512 1024C470.48 1024.03 429.111 1019.02 388.801 1009.07C389.669 980.489 390.537 930.299 391.37 893.413C391.547 886.203 391.707 879.489 391.884 873.554C392.22 860.869 392.575 851.727 392.911 848.662C392.613 849.205 392.381 849.782 392.22 850.381C390.58 858.02 389.461 865.762 388.872 873.554C388.252 879.489 387.632 886.203 387.012 893.413C383.717 931.734 380.28 983.837 376.736 1005.93C355.646 1000.17 334.951 993.053 314.783 984.617C304.153 980.188 293.712 975.41 283.46 970.284C285.409 957.529 287.446 943.232 289.537 928.403C291.167 916.905 292.85 905.088 294.568 893.413C297.226 875.378 299.954 857.698 302.718 842.125C306.757 819.377 310.903 801.094 315.013 792.697C318.91 784.724 322.808 776.858 326.582 769.329C327.893 766.689 329.204 764.085 330.479 761.551C330.78 760.949 331.081 760.364 331.383 759.78C334.093 754.447 336.715 749.345 339.213 744.561C341.357 740.469 343.394 736.607 345.325 733.046C350.003 724.4 353.971 717.509 356.912 713.15C369.207 694.5 387.511 680.616 408.785 673.803L409.316 673.661L409.689 673.82L445.918 662.695L451.215 661.065L454.776 659.966L467.32 650.417L474.14 645.226L480.536 640.354L493.044 630.841L570.481 635.606L585.558 671.907L619.325 684.255L619.91 683.99L620.423 683.777L620.955 683.919C642.226 690.738 660.528 704.621 672.828 723.266C674.493 725.764 676.513 729.06 678.799 733.046C680.747 736.43 682.873 740.292 685.176 744.561C688.454 750.638 692.033 757.494 695.824 764.917C696.657 766.547 697.507 768.213 698.357 769.896C699.934 773.014 701.534 776.197 703.158 779.445C706.932 786.974 710.83 794.84 714.727 802.83C718.111 809.757 721.53 824.001 724.896 842.125C727.678 857.184 730.441 874.935 733.117 893.413C736.624 917.366 732.886 946.048 736.057 968.087C736.252 969.487 736.465 970.851 736.66 972.215Z" fill="#3F3D56"/>
<path d="M513.09 601.865C562.83 601.865 603.153 561.543 603.153 511.802C603.153 462.061 562.83 421.739 513.09 421.739C463.349 421.739 423.026 462.061 423.026 511.802C423.026 561.543 463.349 601.865 513.09 601.865Z" fill="#CE9B64"/>
<path d="M661.614 392.451C659.834 388.295 657.465 384.416 654.58 380.935C640.904 364.229 616.03 356.876 590.501 376.648C585.587 375.55 580.464 375.844 575.708 377.498C573.462 378.311 571.358 379.471 569.472 380.935C565.606 383.951 562.59 387.919 560.72 392.451C559.72 394.844 559.064 397.367 558.771 399.945C552.46 396.666 545.781 394.15 538.876 392.451C521.931 388.236 504.212 388.236 487.268 392.451C481.838 393.824 476.61 395.897 471.713 398.616C463.422 403.399 458.656 409.441 457.806 416.155C445.847 416.828 433.411 423.118 424.145 433.428C423.1 434.58 422.09 435.785 421.151 437.025C413.359 447.22 409.172 459.714 409.246 472.546V474.796H411.496C417.66 474.79 423.767 475.981 429.478 478.304C433.178 479.79 436.682 481.724 439.913 484.062C442.026 485.561 444.022 487.219 445.883 489.022C450.198 493.2 453.854 498.008 456.725 503.284C464.086 516.614 466.638 532.071 463.953 547.061C463.338 550.53 462.437 553.943 461.261 557.265C459.587 562.005 457.382 566.539 454.688 570.783C454.582 570.942 454.493 571.102 454.387 571.261C453.2 573.157 452.066 575.088 451.003 577.036C450.206 578.489 449.462 579.977 448.771 581.466C446.751 585.607 445.046 589.895 443.668 594.292C441.203 602.069 439.75 610.131 439.346 618.28C439.222 620.441 439.186 622.603 439.257 624.764C439.362 630.335 439.973 635.886 441.082 641.347C441.241 642.091 441.401 642.817 441.56 643.561L442.853 649.213L445.918 662.695L448.044 671.978L450.011 680.588L452.916 676.425C453.908 675.008 456.406 670.649 459.755 664.484C461.969 660.462 464.538 655.661 467.32 650.417C471.199 643.065 475.451 634.862 479.615 626.678C481.298 623.365 482.963 620.069 484.575 616.845C487.622 610.733 490.492 604.833 492.955 599.589C495.223 594.753 497.154 590.465 498.589 587.029C499.032 589.278 499.404 591.564 499.687 593.867C500.006 596.206 500.236 598.58 500.36 600.954C500.396 601.308 500.414 601.68 500.431 602.034L500.502 603.487L500.52 603.912L502.398 604.16C513.229 605.32 524.148 605.403 534.996 604.408H535.013C549.384 603.326 563.482 599.91 576.753 594.292C584.29 591.022 591.328 586.704 597.658 581.466C600.616 579.017 603.376 576.34 605.914 573.458C606.552 572.732 607.172 572.005 607.774 571.261C611.28 566.952 614.282 562.256 616.721 557.265C618.354 553.971 619.74 550.56 620.866 547.061C627.67 526.457 627.28 500.75 619.697 470.208C621.745 469.813 623.707 469.057 625.49 467.975C631.053 464.627 634.915 457.983 636.12 449.869L638.034 450.383C644.816 447.224 650.859 442.672 655.767 437.025C656.74 435.875 657.65 434.675 658.496 433.429C667.159 420.673 667.23 405.366 661.614 392.451Z" fill="#2F2E41"/>
<path opacity="0.2" d="M365.522 842.047L380.575 783.952L393.868 834.082L365.522 842.047Z" fill="black"/>
<path d="M766.104 804.194C760.719 878.39 766.299 911.059 736.571 972.233C709.523 985.472 681.349 996.274 652.384 1004.51C649.372 1005.36 646.354 1006.19 643.331 1006.99C605.227 1017.07 566.086 1022.72 526.687 1023.81C524.632 1023.86 522.612 1023.89 520.663 1023.93C519.972 1023.95 519.299 1023.96 518.626 1023.96C516.411 1023.98 514.215 1024 512 1024C470.48 1024.03 429.111 1019.02 388.801 1009.07C384.762 1008.07 380.74 1007.03 376.736 1005.93C355.646 1000.17 334.951 993.053 314.783 984.617C304.153 980.188 293.712 975.41 283.46 970.284C281.139 969.115 278.819 967.946 276.533 966.741C264.787 946.084 258.108 920.962 257.966 890.774C266.098 838.759 748.14 759.337 766.104 804.194Z" fill="#2F2E41"/>
<path opacity="0.2" d="M766.09 816.901C766.365 812.307 766.673 807.563 767.032 802.622C749.067 757.764 267.026 837.186 258.894 889.201C258.916 893.97 259.12 898.598 259.463 903.116C279.156 851.778 737.102 776.292 766.09 816.901Z" fill="black"/>
<path d="M288.944 606.165C289.062 604.559 288.834 602.946 288.276 601.435C287.717 599.924 286.842 598.551 285.709 597.407C284.575 596.263 283.21 595.375 281.704 594.803C280.199 594.231 278.588 593.988 276.981 594.09C276.382 594.113 275.786 594.187 275.2 594.313L204.757 610.227C203.183 610.608 201.706 611.316 200.422 612.303C199.138 613.29 198.074 614.535 197.3 615.958C196.267 615.997 195.242 616.146 194.24 616.403C192.048 616.9 189.975 617.824 188.14 619.121C186.305 620.419 184.744 622.066 183.545 623.968C182.346 625.869 181.534 627.988 181.154 630.203C180.774 632.419 180.834 634.687 181.331 636.879C181.828 639.071 182.752 641.144 184.05 642.979C185.348 644.815 186.994 646.376 188.896 647.575C192.736 649.996 197.38 650.792 201.808 649.788C204.328 649.204 206.685 648.063 208.707 646.45L232.578 713.667C233.77 715.773 235.613 717.437 237.829 718.41C240.045 719.383 242.517 719.612 244.875 719.064L290.669 708.714C293.009 708.166 295.114 706.891 296.684 705.071C298.253 703.252 299.206 700.982 299.405 698.587L288.944 606.165ZM200.75 645.003C197.588 645.717 194.273 645.147 191.53 643.419C188.788 641.692 186.842 638.947 186.121 635.787C185.399 632.627 185.96 629.31 187.68 626.563C189.4 623.816 192.139 621.863 195.297 621.133C195.52 621.077 195.743 621.133 195.965 621.077C195.948 623.104 196.467 625.101 197.468 626.864L206.203 642.11C204.683 643.552 202.797 644.553 200.75 645.003Z" fill="#2F2E41"/>
<path d="M276.981 594.09C277.649 602.993 262.403 613.231 241.982 617.293C223.23 621.133 206.426 618.462 201.696 611.451C202.647 610.887 203.679 610.474 204.757 610.227L275.2 594.313C275.786 594.187 276.382 594.113 276.981 594.09Z" fill="#3F3D56"/>
<path d="M228.262 820.095L267.829 800.312L234.857 711.286L226.167 666.389C225.038 660.557 222.398 655.122 218.511 650.629C214.624 646.136 209.625 642.742 204.015 640.786C198.405 638.83 192.38 638.381 186.542 639.483C180.704 640.585 175.258 643.199 170.747 647.066C164.062 652.795 159.865 660.898 159.041 669.663C158.217 678.429 160.831 687.171 166.331 694.046L198.587 734.367L228.262 820.095Z" fill="#CE9B64"/>
<path d="M267.829 783.826L215.073 810.203L255.109 935.651C257.984 944.659 263.138 952.772 270.071 959.202C277.004 965.632 285.481 970.162 294.68 972.352C306.022 975.053 317.93 974.071 328.677 969.549C339.424 965.026 348.451 957.199 354.45 947.201L460.614 765.23C468.138 752.691 470.46 737.707 467.085 723.478C463.71 709.25 454.905 696.906 442.552 689.082C435.907 684.874 428.452 682.112 420.669 680.976C412.887 679.84 404.953 680.356 397.383 682.489C389.813 684.622 382.777 688.325 376.734 693.358C370.69 698.39 365.773 704.639 362.304 711.697L297.505 849.771L267.829 783.826Z" fill="#3F3D56"/>
<path d="M251.512 670.457C251.414 670.457 251.317 670.44 251.224 670.408L239.706 666.443C239.567 666.395 239.442 666.314 239.342 666.206C239.242 666.097 239.171 665.966 239.135 665.824C239.099 665.681 239.099 665.532 239.135 665.389C239.171 665.246 239.242 665.115 239.342 665.007L247.908 655.68C247.987 655.594 248.081 655.524 248.187 655.474C248.293 655.425 248.407 655.397 248.523 655.391C248.64 655.386 248.756 655.404 248.866 655.444C248.975 655.484 249.076 655.545 249.162 655.623C249.248 655.702 249.317 655.797 249.366 655.903C249.415 656.009 249.443 656.123 249.448 656.24C249.453 656.356 249.434 656.473 249.394 656.582C249.354 656.691 249.292 656.792 249.213 656.877L241.561 665.208L251.8 668.734C251.998 668.802 252.166 668.938 252.273 669.118C252.38 669.298 252.42 669.51 252.386 669.717C252.351 669.924 252.244 670.112 252.084 670.247C251.925 670.382 251.722 670.457 251.512 670.457Z" fill="#F9A826"/>
<path d="M267.3 667.225C267.124 667.225 266.951 667.172 266.805 667.074C266.659 666.975 266.545 666.835 266.479 666.671C266.413 666.508 266.397 666.328 266.434 666.155C266.47 665.983 266.557 665.825 266.684 665.702L274.47 658.175L264.011 653.865C263.904 653.821 263.806 653.756 263.723 653.674C263.64 653.592 263.575 653.494 263.53 653.387C263.485 653.28 263.462 653.164 263.462 653.048C263.462 652.932 263.484 652.816 263.529 652.709C263.573 652.601 263.638 652.503 263.72 652.421C263.802 652.338 263.9 652.273 264.008 652.228C264.115 652.184 264.23 652.161 264.347 652.161C264.463 652.161 264.578 652.184 264.686 652.228L276.395 657.054C276.531 657.11 276.651 657.198 276.744 657.312C276.837 657.426 276.901 657.561 276.928 657.706C276.956 657.85 276.947 657.999 276.903 658.139C276.858 658.28 276.78 658.406 276.674 658.509L267.916 666.976C267.751 667.136 267.53 667.225 267.3 667.225Z" fill="#F9A826"/>
<path d="M253.93 675.875C253.842 675.876 253.754 675.862 253.669 675.836C253.558 675.801 253.455 675.746 253.365 675.672C253.275 675.598 253.201 675.506 253.147 675.403C253.092 675.301 253.059 675.188 253.048 675.072C253.037 674.956 253.049 674.84 253.083 674.728L261.259 648.154C261.329 647.93 261.484 647.743 261.692 647.634C261.899 647.525 262.142 647.502 262.366 647.571C262.59 647.64 262.778 647.796 262.887 648.003C262.997 648.21 263.021 648.452 262.952 648.677L254.777 675.251C254.721 675.432 254.608 675.59 254.456 675.702C254.304 675.815 254.119 675.875 253.93 675.875Z" fill="#F9A826"/>
</g>
<defs>
<clipPath id="clip0_1_3">
<rect width="1024" height="1024" fill="white"/>
</clipPath>
</defs>
</svg>
