<svg xmlns="http://www.w3.org/2000/svg" enable-background="new 0 0 24 24" viewBox="0 0 24 24"><path d="M2.358 15.765c.005-.023.013-.046.019-.069l-.002.002L2.358 15.765zM20.073 15.806l-.002-.001c.002.011.007.021.009.032L20.073 15.806zM1.985 15.849l-.037-.04c-.006.024-.013.049-.019.073L1.985 15.849z"/><path fill="#1572B8" d="M4.469,11.468c-0.182,0.27-0.354,0.525-0.517,0.81c-0.15,0.239-0.271,0.479-0.392,0.721c-0.104,0.195-0.21,0.39-0.286,0.584l-0.059,0.149c-0.091,0.225-0.196,0.449-0.286,0.674c-0.074,0.18-0.135,0.359-0.195,0.539c-0.09,0.285-0.18,0.556-0.255,0.841c-0.038,0.126-0.073,0.253-0.101,0.378l0.871-0.837c0.15-0.143,0.15-0.142,0.301-0.279c1.532-1.349,3.318-2.367,5.179-3.204c-0.275-0.076-0.549-0.136-0.823-0.195c-1.053-0.24-2.113-0.436-3.188-0.525C4.632,11.243,4.55,11.349,4.469,11.468L4.469,11.468z"/><path fill="#1263A0" d="M4.642,11.226c-0.058,0.08-0.116,0.158-0.173,0.241c-0.182,0.27-0.354,0.525-0.517,0.81c-0.15,0.239-0.271,0.479-0.392,0.721c-0.104,0.195-0.21,0.39-0.286,0.584l-0.059,0.149c-0.091,0.225-0.196,0.449-0.286,0.674c-0.074,0.18-0.135,0.359-0.195,0.539c-0.09,0.285-0.18,0.556-0.255,0.841c-0.038,0.126-0.073,0.253-0.101,0.378l0.871-0.837c0.15-0.143,0.15-0.142,0.301-0.279c0.352-0.31,0.718-0.603,1.094-0.879V11.226L4.642,11.226z"/><path fill="#2DA9E2" d="M0.089,13.502c0.091,0.315,0.242,0.615,0.393,0.898c0.285,0.495,0.646,0.959,1.022,1.394l0.444,0.482c0.046-0.179,0.092-0.361,0.141-0.54c0.079-0.3,0.176-0.598,0.266-0.893c0.069-0.217,0.151-0.427,0.227-0.644c0.09-0.223,0.185-0.448,0.277-0.673l0.098-0.229c0.102-0.214,0.211-0.426,0.323-0.635c0.135-0.241,0.255-0.479,0.39-0.704c0.181-0.316,0.378-0.6,0.587-0.885l0.016-0.015c-0.331-0.016-0.677-0.016-1.008-0.016c-0.24,0-0.496,0.016-0.736,0.044c-0.166,0.016-0.33,0.032-0.496,0.061c-0.121,0.016-0.24,0.044-0.361,0.075c-0.587,0.149-1.248,0.419-1.533,1.003c-0.032,0.076-0.062,0.15-0.091,0.241C0.014,12.588,0,12.738,0,12.872C0,13.083,0.044,13.292,0.089,13.502L0.089,13.502z"/><path fill="#2793C5" d="M1.957,11.16c-0.096,0.017-0.19,0.039-0.286,0.063c-0.587,0.149-1.248,0.419-1.533,1.003c-0.032,0.076-0.062,0.15-0.091,0.241C0.014,12.588,0,12.738,0,12.872c0,0.211,0.045,0.42,0.089,0.629c0.091,0.315,0.242,0.615,0.393,0.898c0.285,0.495,0.646,0.959,1.022,1.394l0.444,0.482c0.003-0.012,0.006-0.024,0.009-0.035V11.16L1.957,11.16z"/><path fill="#8EC546" d="M9.916,11.342c0.233-0.094,0.466-0.18,0.7-0.267c1.023-0.375,2.061-0.689,3.113-0.944c0.873-0.211,1.745-0.375,2.633-0.509l0.06-0.016c-0.241-0.226-0.496-0.419-0.753-0.614c-0.481-0.359-1.007-0.66-1.563-0.9c-1.295-0.554-2.723-0.733-4.105-0.477C9.248,7.747,8.511,8.003,7.834,8.364c-1.067,0.568-2,1.378-2.768,2.306l-0.03,0.016l0.466,0.044l0.573,0.075c0.813,0.135,1.594,0.3,2.391,0.479c0.301,0.076,0.887,0.285,0.887,0.285C9.563,11.478,9.705,11.422,9.916,11.342L9.916,11.342z"/><path fill="#7CAC3D" d="M9.291,7.777C8.787,7.92,8.296,8.117,7.834,8.364c-1.067,0.568-2,1.378-2.768,2.306l-0.03,0.016l0.466,0.044l0.573,0.075c0.813,0.135,1.594,0.3,2.391,0.479c0.242,0.061,0.667,0.208,0.826,0.263V7.777L9.291,7.777z"/><path fill="#FEF204" d="M16.803,10.006l-0.041-0.04c-0.2,0.015-0.399,0.045-0.603,0.074c-2.154,0.331-4.26,0.914-6.285,1.708c0.168,0.046,0.336,0.09,0.508,0.15c0.706,0.225,1.412,0.464,2.108,0.72c2.421,0.9,4.755,2.022,6.998,3.31l0.584,0.345c-0.495-2.282-1.545-4.491-3.185-6.181L16.803,10.006L16.803,10.006z"/><path fill="#DDD303" d="M16.729,9.969c-0.189,0.015-0.377,0.044-0.571,0.071c-2.154,0.331-4.26,0.914-6.285,1.708c0.168,0.046,0.336,0.09,0.508,0.15c0.706,0.225,1.412,0.464,2.108,0.72c1.445,0.537,2.859,1.153,4.241,1.836V9.969L16.729,9.969z"/><path fill="#F89224" d="M23.909,11.635c-0.032-0.094-0.076-0.184-0.121-0.268c-0.091-0.154-0.211-0.29-0.331-0.412c-0.21-0.2-0.468-0.358-0.723-0.486c-0.376-0.188-0.781-0.312-1.201-0.406c-0.603-0.135-1.205-0.2-1.821-0.224c-0.842-0.041-1.683-0.006-2.511,0.075c0.105,0.109,0.196,0.225,0.301,0.337c0.195,0.226,0.392,0.466,0.571,0.721c0.227,0.298,0.437,0.628,0.647,0.958c0.602,0.988,1.053,2.068,1.383,3.161c0.105,0.329,0.182,0.66,0.255,1.004c0.031,0.12,0.048,0.255,0.077,0.39l0.08,0.016c0.192-0.025,0.376-0.111,0.542-0.209c0.345-0.2,0.646-0.471,0.936-0.747c0.226-0.214,0.444-0.435,0.653-0.668c0.12-0.146,0.257-0.295,0.376-0.449c0.105-0.143,0.21-0.284,0.315-0.434c0.076-0.115,0.151-0.229,0.213-0.349C23.877,13.048,24.149,12.313,23.909,11.635L23.909,11.635z"/><path fill="#D87F1F" d="M18.992,9.821c-0.601,0-1.2,0.035-1.792,0.092c0.105,0.109,0.196,0.225,0.301,0.337c0.195,0.226,0.392,0.466,0.571,0.721c0.227,0.298,0.437,0.628,0.647,0.958c0.602,0.988,1.053,2.068,1.383,3.161c0.105,0.329,0.182,0.66,0.255,1.004c0.024,0.094,0.04,0.198,0.06,0.304V9.885c-0.234-0.023-0.468-0.038-0.705-0.048C19.471,9.826,19.231,9.821,18.992,9.821L18.992,9.821z"/></svg>